<mxfile host="app.diagrams.net" modified="2024-05-17T09:54:23.480Z" agent="Mozilla/5.0 (Windows NT 10.0; Win64; x64) AppleWebKit/537.36 (KHTML, like Gecko) Chrome/124.0.0.0 Safari/537.36" version="24.4.3" etag="xJbhm7G8kloQg9LCgt4I" type="github">
  <diagram name="Page-1" id="e2xam95Kh5NV5r7jT63Y">
    <mxGraphModel>
      <root>
        <mxCell id="0" />
        <mxCell id="1" parent="0" />
      </root>
    </mxGraphModel>
  </diagram>
</mxfile>
